<?xml version="1.0" standalone="no"?>
<!DOCTYPE svg PUBLIC "-//W3C//DTD SVG 20010904//EN"
 "http://www.w3.org/TR/2001/REC-SVG-20010904/DTD/svg10.dtd">
<svg version="1.0" xmlns="http://www.w3.org/2000/svg"
 width="700.000000pt" height="700.000000pt" viewBox="0 0 700.000000 700.000000"
 preserveAspectRatio="xMidYMid meet">
<metadata>
Created by potrace 1.14, written by Peter Selinger 2001-2017
</metadata>
<g transform="translate(0.000000,700.000000) scale(0.100000,-0.100000)"
fill="#000000" stroke="none">
<path d="M526 5282 c-58 -96 -166 -320 -166 -344 0 -8 -4 -18 -9 -24 -13 -13
-94 -261 -124 -379 -47 -183 -84 -404 -105 -635 -15 -157 -6 -739 12 -837 2
-10 7 -45 10 -78 6 -52 18 -123 41 -253 10 -61 73 -296 103 -387 57 -174 175
-438 252 -562 l20 -33 130 0 c71 0 130 2 130 4 0 2 -16 33 -36 68 -52 91 -116
228 -162 343 -39 99 -109 303 -116 341 -2 10 -11 46 -19 79 -16 61 -44 201
-53 265 -2 19 -7 44 -9 55 -2 11 -7 49 -10 85 -4 36 -8 76 -11 90 -25 146 -25
808 0 937 3 12 7 50 11 85 3 35 8 70 10 78 2 8 7 40 10 70 4 30 9 58 11 61 2
4 6 24 10 45 22 143 95 392 171 578 39 96 153 335 172 361 30 40 24 42 -110
43 l-129 0 -34 -56z"/>
<path d="M6255 5176 c45 -88 87 -174 93 -191 6 -16 21 -55 32 -85 100 -258
178 -582 205 -845 3 -33 8 -73 10 -90 11 -82 18 -259 18 -430 -1 -249 -13
-414 -48 -655 -10 -69 -31 -173 -55 -275 -12 -49 -23 -99 -26 -109 -9 -44 -79
-248 -121 -350 -44 -109 -123 -272 -170 -353 l-25 -43 134 0 c130 0 135 1 146
22 6 13 26 48 43 78 149 256 281 637 334 960 3 19 8 49 11 65 9 56 12 80 19
145 4 36 9 73 10 82 24 127 24 736 0 890 -4 27 -12 94 -20 163 -4 28 -8 57
-10 65 -2 8 -7 31 -10 50 -55 350 -206 775 -359 1015 l-34 53 -130 0 -129 0
82 -162z"/>
<path d="M2553 5012 l-32 -3 0 -1338 0 -1337 197 1 197 0 0 528 0 527 299 -2
c285 -3 299 -4 310 -23 6 -10 20 -35 32 -55 11 -19 42 -75 69 -125 27 -49 111
-205 188 -345 77 -140 157 -286 178 -325 20 -38 51 -95 68 -125 l30 -55 206 0
c113 -1 205 0 205 1 0 1 -18 34 -41 75 -22 41 -57 103 -76 139 -20 36 -61 110
-91 165 -30 55 -71 129 -90 165 -19 36 -63 115 -97 175 -34 61 -68 124 -77
140 -8 17 -38 72 -66 123 -29 50 -52 96 -52 100 0 5 22 14 49 21 28 7 82 28
121 47 218 104 355 274 410 508 27 117 22 368 -9 476 -99 337 -374 526 -783
540 -117 4 -1106 6 -1145 2z m1117 -336 c130 -12 241 -58 319 -131 85 -79 123
-190 120 -349 -2 -103 -14 -158 -51 -234 -48 -96 -162 -178 -303 -218 -50 -14
-122 -17 -447 -20 -362 -3 -388 -2 -389 14 -4 87 -1 931 3 938 7 10 642 11
748 0z"/>
</g>
</svg>
